HIERARCHY
ROOT Hips
{
	OFFSET 0.000000 83.214638 0.000000
	CHANNELS 6 Xposition Yposition Zposition Xrotation Yrotation Zrotation
	JOINT Pelvis
	{
		OFFSET 0.000000 0.000000 0.000000
		CHANNELS 3 Xrotation Yrotation Zrotation
		JOINT LeftUpLeg
		{
			OFFSET 8.479700 -4.795502 -0.379100
			CHANNELS 3 Xrotation Yrotation Zrotation
			JOINT LeftLeg
			{
				OFFSET 0.024144 -32.555107 0.112900
				CHANNELS 3 Xrotation Yrotation Zrotation
				JOINT LeftFoot
				{
					OFFSET -0.024144 -32.638630 -3.012600
					CHANNELS 3 Xrotation Yrotation Zrotation
					JOINT LeftToeBase
					{
						OFFSET 0.970200 -13.225400 11.864200
						CHANNELS 3 Xrotation Yrotation Zrotation
						End Site
						{
							OFFSET 0.000000 12.319262 0.000000
						}
					}
					JOINT LFootTongue
					{
						OFFSET 1.142400 -1.059800 6.665200
						CHANNELS 3 Xrotation Yrotation Zrotation
						End Site
						{
							OFFSET 0.000000 12.319262 0.000000
						}
					}
				}
				JOINT LeftPantLeg
				{
					OFFSET 0.918482 -16.533964 -2.284700
					CHANNELS 3 Xrotation Yrotation Zrotation
					End Site
					{
						OFFSET 0.350399 24.744368 0.000000
					}
				}
			}
		}
		JOINT RightUpLeg
		{
			OFFSET -8.479700 -4.795502 -0.379100
			CHANNELS 3 Xrotation Yrotation Zrotation
			JOINT RightLeg
			{
				OFFSET -0.023144 -32.555092 0.112900
				CHANNELS 3 Xrotation Yrotation Zrotation
				JOINT RightFoot
				{
					OFFSET 0.023144 -32.638641 -3.012700
					CHANNELS 3 Xrotation Yrotation Zrotation
					JOINT RightToeBase
					{
						OFFSET -0.970200 -13.225400 11.864200
						CHANNELS 3 Xrotation Yrotation Zrotation
						End Site
						{
							OFFSET 0.000000 12.319244 0.000000
						}
					}
					JOINT RFootTongue
					{
						OFFSET -1.142200 -1.059800 6.665200
						CHANNELS 3 Xrotation Yrotation Zrotation
						End Site
						{
							OFFSET 0.000000 12.319243 0.000000
						}
					}
				}
				JOINT RightPantLeg
				{
					OFFSET -0.919482 -16.533978 -2.284800
					CHANNELS 3 Xrotation Yrotation Zrotation
					End Site
					{
						OFFSET -0.350400 24.744419 0.000000
					}
				}
			}
		}
	}
	JOINT Spine
	{
		OFFSET 0.000000 7.722000 1.166200
		CHANNELS 3 Xrotation Yrotation Zrotation
		JOINT Spine1
		{
			OFFSET 0.000000 12.024101 0.248800
			CHANNELS 3 Xrotation Yrotation Zrotation
			JOINT Spine2
			{
				OFFSET 0.000000 11.502998 -0.491200
				CHANNELS 3 Xrotation Yrotation Zrotation
				JOINT Neck
				{
					OFFSET 0.000000 18.430702 -3.123100
					CHANNELS 3 Xrotation Yrotation Zrotation
					JOINT Head
					{
						OFFSET 0.000000 9.051102 1.034000
						CHANNELS 3 Xrotation Yrotation Zrotation
						JOINT HairB
						{
							OFFSET 0.208400 24.786102 24.822300
							CHANNELS 3 Xrotation Yrotation Zrotation
							End Site
							{
								OFFSET 0.000000 32.263779 0.000000
							}
						}
						JOINT HairA
						{
							OFFSET -7.081100 24.428299 23.196600
							CHANNELS 3 Xrotation Yrotation Zrotation
							End Site
							{
								OFFSET 0.000000 32.263779 0.000000
							}
						}
						JOINT Hat
						{
							OFFSET 16.728800 15.048294 -15.439601
							CHANNELS 3 Xrotation Yrotation Zrotation
							End Site
							{
								OFFSET 0.000000 32.263779 0.000000
							}
						}
					}
				}
				JOINT LeftShoulder
				{
					OFFSET 6.197800 13.665199 -4.064700
					CHANNELS 3 Xrotation Yrotation Zrotation
					JOINT LeftArm
					{
						OFFSET 7.778100 -0.187103 -1.709300
						CHANNELS 3 Xrotation Yrotation Zrotation
						JOINT LeftForeArm
						{
							OFFSET 22.049376 0.000000 0.000000
							CHANNELS 3 Xrotation Yrotation Zrotation
							JOINT LeftHand
							{
								OFFSET 23.009392 0.000000 0.000000
								CHANNELS 3 Xrotation Yrotation Zrotation
								JOINT LeftHandThumb1
								{
									OFFSET 3.507191 -2.063065 3.133727
									CHANNELS 3 Xrotation Yrotation Zrotation
									JOINT LeftHandThumb2
									{
										OFFSET 3.101337 -1.790558 1.790558
										CHANNELS 3 Xrotation Yrotation Zrotation
										JOINT LeftHandThumb3
										{
											OFFSET 3.058640 -1.765907 1.765906
											CHANNELS 3 Xrotation Yrotation Zrotation
											End Site
											{
												OFFSET -0.415260 3.926476 -0.049563
											}
										}
									}
								}
								JOINT LeftHandIndex1
								{
									OFFSET 11.334419 -0.901459 3.706815
									CHANNELS 3 Xrotation Yrotation Zrotation
									JOINT LeftHandIndex2
									{
										OFFSET 3.283112 0.000000 0.000000
										CHANNELS 3 Xrotation Yrotation Zrotation
										JOINT LeftHandIndex3
										{
											OFFSET 3.323853 0.000000 0.000000
											CHANNELS 3 Xrotation Yrotation Zrotation
											End Site
											{
												OFFSET -1.135597 3.097809 0.402452
											}
										}
									}
								}
								JOINT LeftHandMiddle1
								{
									OFFSET 11.335861 0.000000 0.000000
									CHANNELS 3 Xrotation Yrotation Zrotation
									JOINT LeftHandMiddle2
									{
										OFFSET 3.410492 0.000000 0.000000
										CHANNELS 3 Xrotation Yrotation Zrotation
										JOINT LeftHandMiddle3
										{
											OFFSET 3.312172 0.000000 0.000000
											CHANNELS 3 Xrotation Yrotation Zrotation
											End Site
											{
												OFFSET -1.150200 3.080154 0.400270
											}
										}
									}
								}
								JOINT LeftHandRing1
								{
									OFFSET 11.514786 -0.013176 -3.003090
									CHANNELS 3 Xrotation Yrotation Zrotation
									JOINT LeftHandRing2
									{
										OFFSET 3.053307 0.000000 0.000000
										CHANNELS 3 Xrotation Yrotation Zrotation
										JOINT LeftHandRing3
										{
											OFFSET 3.295807 0.000000 0.000000
											CHANNELS 3 Xrotation Yrotation Zrotation
											End Site
											{
												OFFSET -1.281006 3.013344 0.375733
											}
										}
									}
								}
								JOINT LeftHandPinky1
								{
									OFFSET 10.518692 -0.960396 -5.730441
									CHANNELS 3 Xrotation Yrotation Zrotation
									JOINT LeftHandPinky2
									{
										OFFSET 2.861649 0.000000 0.000000
										CHANNELS 3 Xrotation Yrotation Zrotation
										JOINT LeftHandPinky3
										{
											OFFSET 2.863380 0.000000 0.000000
											CHANNELS 3 Xrotation Yrotation Zrotation
											End Site
											{
												OFFSET -0.843597 2.711159 0.369971
											}
										}
									}
								}
							}
							JOINT LSleeve
							{
								OFFSET 6.676277 -0.344902 -1.011730
								CHANNELS 3 Xrotation Yrotation Zrotation
								End Site
								{
									OFFSET 0.000000 14.885353 0.000000
								}
							}
						}
					}
				}
				JOINT RightShoulder
				{
					OFFSET -6.197800 13.665199 -4.064700
					CHANNELS 3 Xrotation Yrotation Zrotation
					JOINT RightArm
					{
						OFFSET -7.778100 -0.187103 -1.709300
						CHANNELS 3 Xrotation Yrotation Zrotation
						JOINT RightForeArm
						{
							OFFSET -22.049376 0.000000 0.000000
							CHANNELS 3 Xrotation Yrotation Zrotation
							JOINT RightHand
							{
								OFFSET -23.009392 0.000000 0.000000
								CHANNELS 3 Xrotation Yrotation Zrotation
								JOINT RightHandThumb1
								{
									OFFSET -3.507191 -2.063065 3.133727
									CHANNELS 3 Xrotation Yrotation Zrotation
									JOINT RightHandThumb2
									{
										OFFSET -3.101337 -1.790558 1.790558
										CHANNELS 3 Xrotation Yrotation Zrotation
										JOINT RightHandThumb3
										{
											OFFSET -3.058640 -1.765907 1.765906
											CHANNELS 3 Xrotation Yrotation Zrotation
											End Site
											{
												OFFSET 0.415260 3.926476 -0.049563
											}
										}
									}
								}
								JOINT RightHandIndex1
								{
									OFFSET -11.334419 -0.901459 3.706815
									CHANNELS 3 Xrotation Yrotation Zrotation
									JOINT RightHandIndex2
									{
										OFFSET -3.283112 0.000000 0.000000
										CHANNELS 3 Xrotation Yrotation Zrotation
										JOINT RightHandIndex3
										{
											OFFSET -3.323853 0.000000 0.000000
											CHANNELS 3 Xrotation Yrotation Zrotation
											End Site
											{
												OFFSET 1.135597 3.097809 0.402452
											}
										}
									}
								}
								JOINT RightHandMiddle1
								{
									OFFSET -11.335861 0.000000 0.000000
									CHANNELS 3 Xrotation Yrotation Zrotation
									JOINT RightHandMiddle2
									{
										OFFSET -3.410492 0.000000 0.000000
										CHANNELS 3 Xrotation Yrotation Zrotation
										JOINT RightHandMiddle3
										{
											OFFSET -3.312172 0.000000 0.000000
											CHANNELS 3 Xrotation Yrotation Zrotation
											End Site
											{
												OFFSET 1.150200 3.080154 0.400270
											}
										}
									}
								}
								JOINT RightHandRing1
								{
									OFFSET -11.514786 -0.013176 -3.003090
									CHANNELS 3 Xrotation Yrotation Zrotation
									JOINT RightHandRing2
									{
										OFFSET -3.053307 0.000000 0.000000
										CHANNELS 3 Xrotation Yrotation Zrotation
										JOINT RightHandRing3
										{
											OFFSET -3.295807 0.000000 0.000000
											CHANNELS 3 Xrotation Yrotation Zrotation
											End Site
											{
												OFFSET 1.281006 3.013344 0.375733
											}
										}
									}
								}
								JOINT RightHandPinky1
								{
									OFFSET -10.518692 -0.960396 -5.730441
									CHANNELS 3 Xrotation Yrotation Zrotation
									JOINT RightHandPinky2
									{
										OFFSET -2.861649 0.000000 0.000000
										CHANNELS 3 Xrotation Yrotation Zrotation
										JOINT RightHandPinky3
										{
											OFFSET -2.863380 0.000000 0.000000
											CHANNELS 3 Xrotation Yrotation Zrotation
											End Site
											{
												OFFSET 0.843597 2.711159 0.369971
											}
										}
									}
								}
							}
							JOINT RSleeve
							{
								OFFSET -6.676277 -0.344902 -1.011730
								CHANNELS 3 Xrotation Yrotation Zrotation
								End Site
								{
									OFFSET 0.000000 14.885353 0.000000
								}
							}
						}
					}
				}
				JOINT Backpack
				{
					OFFSET 0.000000 -2.471497 36.677502
					CHANNELS 3 Xrotation Yrotation Zrotation
					End Site
					{
						OFFSET 0.000000 20.427315 0.000000
					}
				}
				JOINT Hood
				{
					OFFSET 0.000000 18.754097 -10.431000
					CHANNELS 3 Xrotation Yrotation Zrotation
					JOINT Hood1
					{
						OFFSET 0.000000 -5.011002 -7.685901
						CHANNELS 3 Xrotation Yrotation Zrotation
						End Site
						{
							OFFSET 0.000000 9.175140 0.000000
						}
					}
				}
				JOINT LHoodieString
				{
					OFFSET 5.250500 16.397697 3.089900
					CHANNELS 3 Xrotation Yrotation Zrotation
					JOINT LHoodieString1
					{
						OFFSET 0.257700 -6.364304 3.694600
						CHANNELS 3 Xrotation Yrotation Zrotation
						JOINT LHoodieString2
						{
							OFFSET 0.000000 -9.643799 2.679100
							CHANNELS 3 Xrotation Yrotation Zrotation
							End Site
							{
								OFFSET 0.000000 10.009018 0.000000
							}
						}
					}
				}
				JOINT RHoodieString
				{
					OFFSET -5.250500 16.397697 3.089900
					CHANNELS 3 Xrotation Yrotation Zrotation
					JOINT RHoodieString1
					{
						OFFSET -0.257700 -6.364304 3.694600
						CHANNELS 3 Xrotation Yrotation Zrotation
						JOINT RHoodieString2
						{
							OFFSET 0.000000 -9.643799 2.679100
							CHANNELS 3 Xrotation Yrotation Zrotation
							End Site
							{
								OFFSET 0.000000 10.009018 0.000000
							}
						}
					}
				}
			}
			JOINT LBackpack_Strap
			{
				OFFSET 15.223200 -7.719803 -6.610900
				CHANNELS 3 Xrotation Yrotation Zrotation
				End Site
				{
					OFFSET 0.000000 16.040596 0.000000
				}
			}
			JOINT RBackpack_Strap
			{
				OFFSET -15.223000 -7.719803 -6.610900
				CHANNELS 3 Xrotation Yrotation Zrotation
				End Site
				{
					OFFSET 0.000000 16.040596 0.000000
				}
			}
		}
	}
	JOINT BoyFacialAnim_Joint
	{
		OFFSET 1.000000 -82.208099 -1.550900
		CHANNELS 3 Xrotation Yrotation Zrotation
		End Site
		{
			OFFSET 0.000000 30.012791 0.000000
		}
	}
}
MOTION
Frames: 4
Frame Time: 0.033333
-13.151482 63.553177 -10.678867 12.294983 4.645571 171.661177 0.000000 -0.000000 -0.000001 -85.075627 -20.574533 19.818678 119.211950 6.230181 2.404313 -3.755038 -3.547039 -8.641546 -0.000000 0.000000 0.000000 -0.000000 0.000000 0.000000 0.000004 -0.000000 -0.000001 -62.798521 12.242628 -28.440933 70.731028 -2.216967 2.539545 12.044447 -8.675958 6.614674 0.000000 -0.000000 -0.000000 0.000000 -0.000000 -0.000000 0.000000 -0.000000 -0.000002 36.433103 -8.526171 8.939059 -0.206139 -3.681271 2.752874 -0.129586 -3.469245 3.102627 -13.458636 2.292366 2.904120 2.435915 18.433560 -7.316318 0.000000 0.000000 -0.000000 0.000000 0.000000 -0.000000 0.000000 0.000000 -0.000000 0.356551 -20.237084 -11.464328 -76.041261 14.837133 -31.262435 -0.000122 -111.675526 -0.000118 39.012145 3.019582 0.989021 -11.470726 -4.767270 2.951398 13.901592 35.341513 -4.438575 -0.000003 0.000000 0.000000 0.574641 -8.129898 2.315537 1.087587 3.401621 -35.452473 -0.000001 -0.000000 -0.000002 -0.134811 0.122111 -4.730193 1.364650 3.759778 -39.886170 -0.000001 -0.000000 0.000000 0.677387 9.878423 -4.467129 1.993081 4.402306 -48.699443 -0.000001 -0.000001 -0.000002 6.926442 17.261956 -26.475707 0.674393 2.730814 -27.739347 0.000001 0.000002 -0.000002 0.000000 0.000001 -0.000000 0.529030 12.406839 14.010952 -63.022873 19.631893 46.193208 -0.002177 95.625927 0.002116 16.957280 12.212698 -15.737495 -17.027016 8.934348 -3.193840 18.064329 -38.437043 2.215521 0.000002 -0.000000 0.000001 1.152546 11.453199 -4.154255 0.656746 -2.386423 30.769753 0.000001 0.000002 0.000002 0.097761 -3.681785 2.119180 2.517185 -4.137358 62.618928 -0.000000 0.000003 0.000002 1.867872 -8.440452 18.434423 3.353474 -4.471354 73.726968 0.000000 0.000000 0.000002 3.512754 -12.209016 20.605173 1.576491 -3.494352 48.555040 -0.000001 0.000001 0.000004 0.000000 0.000003 -0.000004 -0.000001 -0.000001 0.000001 -0.000001 -0.000001 0.000001 -0.000001 -0.000001 0.000001 -0.000001 -0.000001 0.000001 -0.000001 -0.000001 0.000001 -0.000001 0.000003 -0.000001 -0.000001 -0.000001 0.000001 -0.000001 -0.000001 0.000001 -0.000001 0.000003 -0.000001 0.000001 0.000000 -0.000000 0.000001 0.000000 -0.000000 0.000000 -0.000000 -0.000001 
-15.170672 63.624962 -9.157853 12.422587 27.675273 168.630841 -0.000000 -0.000003 -0.000000 -78.174718 -22.357287 23.991176 116.617216 6.889184 1.286547 -1.841494 -4.930967 -10.678994 0.000002 -0.000000 -0.000001 0.000002 -0.000000 -0.000001 -0.000001 -0.000001 -0.000000 -61.611954 11.871204 -25.119052 79.076098 -7.842591 2.569563 8.192787 -7.857184 4.729060 0.000000 -0.000001 -0.000000 0.000000 -0.000001 -0.000000 -0.000000 0.000000 0.000002 32.261005 -10.304551 8.303785 -0.541927 -3.917781 2.497029 -0.463051 -3.729088 2.894015 -10.327970 3.531665 0.473267 1.637573 19.858871 -8.260016 0.000001 0.000001 0.000000 0.000001 0.000001 0.000000 0.000001 0.000001 0.000000 1.717954 -19.418723 -6.849426 -62.959284 33.309883 -36.093643 -0.000023 -122.520275 -0.000036 30.304528 -0.450624 -9.779126 -11.510470 -4.744299 3.005597 13.898505 35.306207 -4.421895 -0.000006 -0.000002 -0.000003 0.559410 -8.135131 2.227781 1.087069 3.400868 -35.443450 0.000001 0.000001 -0.000002 -0.137983 0.118205 -4.790681 1.361362 3.755869 -39.836170 0.000000 -0.000002 0.000002 0.685016 9.873323 -4.533181 1.985335 4.395504 -48.598227 0.000002 0.000000 -0.000005 6.909735 17.263042 -26.410825 0.676695 2.735168 -27.787385 0.000000 0.000001 0.000002 0.000000 0.000001 0.000000 0.662922 10.347912 14.200893 -64.311381 22.471678 57.877534 -0.000386 78.723797 0.000367 14.969647 20.420838 -28.773330 -17.010849 8.959753 -3.219252 18.032167 -38.368656 2.210470 0.000001 -0.000000 0.000000 1.155420 11.453949 -4.166396 0.656737 -2.386431 30.769736 -0.000000 -0.000000 0.000003 0.096587 -3.677979 2.071575 2.511312 -4.134304 62.537683 -0.000000 0.000002 -0.000003 1.858612 -8.436215 18.348255 3.346907 -4.469456 73.642813 -0.000001 -0.000001 0.000004 3.497803 -12.207257 20.518617 1.571614 -3.490050 48.474867 0.000000 0.000001 0.000000 -0.000000 0.000000 0.000001 0.000000 0.000000 -0.000001 0.000000 0.000000 -0.000001 0.000000 0.000000 -0.000001 0.000000 0.000000 -0.000001 0.000000 0.000000 -0.000002 -0.000001 -0.000001 -0.000000 0.000000 0.000000 -0.000001 0.000000 0.000000 -0.000002 -0.000001 -0.000001 -0.000000 -0.000000 -0.000003 -0.000000 -0.000000 -0.000003 -0.000000 -0.000000 -0.000003 -0.000000 
-16.831234 63.603142 -7.567070 13.068263 53.336630 168.614216 -0.000000 -0.000003 -0.000000 -67.577427 -21.135249 27.298029 113.375014 7.737627 0.619784 -1.756869 -8.781208 -9.371548 0.000002 0.000001 0.000001 0.000002 0.000001 0.000002 0.000000 -0.000001 -0.000002 -56.950210 12.744991 -18.199838 86.900183 -9.133513 -1.448549 7.061068 -10.929842 -0.708791 0.000001 -0.000001 -0.000001 0.000001 -0.000001 -0.000001 -0.000000 -0.000000 -0.000001 28.657452 -11.597370 0.937047 -1.008880 -3.300740 2.215934 -0.940442 -3.154603 2.557464 -5.811492 3.974847 -1.959890 -6.457117 19.248219 -4.789697 0.000001 0.000000 0.000000 0.000001 0.000000 0.000000 0.000001 0.000000 0.000000 3.182945 -25.643348 -2.589688 -40.855361 43.743701 -35.479537 0.000022 -139.055808 0.000014 15.976729 12.395351 -1.943996 -11.627092 -4.694095 3.157436 13.882062 35.190996 -4.373533 0.000002 -0.000002 -0.000000 0.518519 -8.152117 1.992017 1.084466 3.397228 -35.399621 -0.000004 0.000001 -0.000005 -0.146558 0.105152 -4.948052 1.350917 3.743321 -39.676384 0.000000 0.000000 -0.000003 0.704737 9.857554 -4.706283 1.961943 4.374832 -48.292320 0.000001 0.000000 -0.000002 6.859616 17.270157 -26.208722 0.682354 2.745879 -27.905877 -0.000000 0.000000 -0.000000 0.000001 0.000001 0.000001 0.259918 14.221304 16.544470 -63.723172 22.456607 54.422421 0.000210 72.680815 -0.000203 3.745835 20.465065 -45.437888 -16.963436 9.034119 -3.293738 17.929672 -38.174743 2.197385 -0.000002 0.000001 -0.000002 1.161740 11.443258 -4.197730 0.656758 -2.386432 30.769756 -0.000002 -0.000000 0.000002 0.093237 -3.666848 1.933536 2.494172 -4.125372 62.299644 -0.000002 0.000001 0.000002 1.831756 -8.423811 18.097778 3.327673 -4.463796 73.395833 -0.000000 -0.000000 0.000000 3.454391 -12.201960 20.267017 1.557392 -3.477430 48.240725 -0.000002 0.000002 -0.000005 0.000000 0.000001 0.000002 0.000001 0.000001 -0.000001 0.000001 0.000001 -0.000001 0.000001 0.000001 -0.000001 0.000001 0.000001 -0.000001 0.000001 0.000001 -0.000001 0.000001 0.000001 -0.000001 0.000001 0.000001 -0.000001 0.000001 0.000001 -0.000001 0.000001 0.000001 -0.000001 0.000001 0.000001 -0.000001 0.000001 0.000001 -0.000001 -0.000000 -0.000003 -0.000000 
-17.595503 63.400467 -4.451320 38.902582 80.992752 145.819785 0.000001 0.000001 -0.000000 -53.850280 -13.850450 24.560332 109.142181 7.656984 2.029841 -0.841493 1.482312 -13.214153 -0.000000 -0.000002 -0.000000 -0.000000 -0.000002 -0.000000 0.000000 -0.000003 -0.000003 -49.783688 13.372532 -12.020423 91.760559 -9.291500 -5.347213 6.438006 -10.891236 -3.906887 0.000003 -0.000003 -0.000005 0.000003 -0.000003 -0.000005 -0.000003 -0.000001 -0.000001 25.939305 -11.152622 -7.835234 -0.932791 -2.292442 2.148609 -0.854186 -2.187989 2.379240 -1.853414 4.506133 -3.894276 -15.509319 18.350821 -0.212062 -0.000000 -0.000001 0.000000 -0.000000 -0.000001 0.000000 -0.000000 -0.000001 0.000000 2.108713 -24.130956 -5.070506 -16.531293 24.384808 -37.549300 0.000001 -147.968494 0.000005 8.147351 23.056909 21.186065 -11.817163 -4.644586 3.391621 13.841599 34.981681 -4.295836 0.000004 -0.000001 -0.000001 0.458811 -8.182714 1.648347 1.078344 3.388613 -35.296133 0.000001 -0.000000 -0.000002 -0.159232 0.080907 -5.167239 1.332381 3.720909 -39.391576 -0.000002 -0.000001 0.000000 0.731754 9.830312 -4.949808 1.922817 4.339722 -47.777016 -0.000000 0.000001 -0.000004 6.774738 17.286895 -25.857220 0.689607 2.759527 -28.056986 -0.000002 -0.000000 -0.000002 -0.000000 0.000001 0.000001 0.016338 17.783190 17.017094 -58.580811 18.980997 47.896910 -0.000049 81.298676 0.000048 0.401442 5.678944 -66.111279 -16.886162 9.154857 -3.415129 17.762812 -37.861378 2.172950 0.000001 0.000001 0.000000 1.170451 11.426611 -4.241727 0.656255 -2.385647 30.758169 0.000001 0.000001 0.000002 0.087661 -3.640178 1.712361 2.466348 -4.110698 61.912380 -0.000001 0.000000 0.000003 1.787174 -8.399175 17.694291 3.296380 -4.454359 72.993228 -0.000001 -0.000001 0.000002 3.384447 -12.193038 19.861316 1.534416 -3.456807 47.860997 0.000000 0.000001 -0.000003 0.000001 0.000003 -0.000001 0.000000 0.000000 -0.000000 0.000000 0.000000 -0.000000 0.000000 0.000000 -0.000000 0.000000 0.000000 -0.000000 0.000000 0.000000 -0.000000 0.000000 0.000000 0.000000 0.000000 0.000000 -0.000000 0.000000 0.000000 -0.000000 0.000000 0.000000 0.000000 -0.000000 0.000000 0.000000 -0.000000 0.000000 0.000000 0.000001 0.000001 -0.000000 
